<svg width="270" height="35" viewBox="0 0 270 35" fill="none" xmlns="http://www.w3.org/2000/svg">
<mask id="mask0_51_730" style="mask-type:alpha" maskUnits="userSpaceOnUse" x="0" y="0" width="270" height="35">
<rect width="270" height="35" fill="#D9D9D9"/>
</mask>
<g mask="url(#mask0_51_730)">
<rect x="152.5" y="4.5" width="99" height="26" rx="3.5" stroke="#FF7800" stroke-dasharray="3 3"/>
<path d="M170.032 25H160.912V10.82H164.632V21.46H170.032V25ZM175.826 25H172.006V10.82H175.826V25ZM178.198 17.92C178.198 13.32 181.578 10.52 185.478 10.52C189.378 10.52 192.758 13.32 192.758 17.92C192.758 19.72 192.218 21.24 191.358 22.44L192.958 24.22L190.478 26.36L188.858 24.54C187.838 25.04 186.678 25.32 185.478 25.32C181.578 25.32 178.198 22.52 178.198 17.92ZM182.058 17.9C182.058 20.52 183.818 21.7 185.478 21.7C185.738 21.7 185.998 21.68 186.258 21.62L184.618 19.76L187.118 17.62L188.658 19.38C188.798 18.96 188.898 18.46 188.898 17.9C188.898 15.32 187.138 14.14 185.478 14.14C183.818 14.14 182.058 15.32 182.058 17.9ZM200.691 25.32C197.391 25.32 194.991 23.36 194.991 19.8V10.82H198.731V19.68C198.731 21.08 199.451 21.82 200.691 21.82C201.931 21.82 202.631 21.08 202.631 19.68V10.82H206.371V19.8C206.371 23.36 203.991 25.32 200.691 25.32ZM213.209 25H209.389V10.82H213.209V25ZM220.101 21.34H221.461C223.241 21.34 224.781 20.3 224.781 17.9C224.781 15.5 223.241 14.42 221.461 14.42H220.101V21.34ZM221.481 25H216.361V10.82H221.501C225.621 10.82 228.621 13.52 228.621 17.92C228.621 22.32 225.621 25 221.481 25ZM239.482 25L238.622 22.32H233.762L232.902 25H229.102L234.082 10.82H238.522L243.482 25H239.482ZM236.222 14.7L234.742 19.26H237.662L236.222 14.7Z" fill="#FF7800"/>
<path d="M60.666 17.19C59.632 17.19 58.664 18.004 58.664 19.5C58.664 21.018 59.61 21.788 60.71 21.788C61.81 21.788 62.36 21.084 62.536 20.468L65.99 21.502C65.44 23.504 63.658 25.33 60.688 25.33C57.454 25.33 54.792 23.02 54.792 19.5C54.792 15.936 57.432 13.67 60.6 13.67C63.636 13.67 65.33 15.408 65.88 17.388C65.352 17.608 62.998 18.29 62.47 18.51C62.294 17.85 61.766 17.19 60.666 17.19ZM73.9829 25C73.9389 24.736 73.8949 24.208 73.8949 23.834C73.3889 24.736 72.2449 25.242 71.0129 25.242C68.5709 25.242 66.9429 23.592 66.9429 20.974V14.022H70.8149V20.204C70.8149 21.04 71.2549 21.7 72.1789 21.7C73.0589 21.7 73.6089 21.084 73.6089 20.204V14.022H77.4809V22.954C77.4809 23.812 77.5689 24.758 77.5909 25H73.9829ZM83.2363 29.246H79.3643V14.022H83.0603V15.342C83.4563 14.55 84.6003 13.78 86.0743 13.78C89.0663 13.78 91.1563 15.98 91.1563 19.5C91.1563 22.998 88.8463 25.22 85.9423 25.22C84.6663 25.22 83.6103 24.714 83.2363 24.01V29.246ZM87.2843 19.522C87.2843 18.004 86.3163 17.234 85.2163 17.234C84.1603 17.234 83.1923 18.004 83.1923 19.522C83.1923 21.04 84.1823 21.832 85.2163 21.832C86.3163 21.832 87.2843 21.04 87.2843 19.522ZM95.6606 19.478C95.6606 21.062 96.6726 21.788 97.6846 21.788C98.7406 21.788 99.7526 21.062 99.7526 19.478C99.7526 17.894 98.7406 17.168 97.6846 17.168C96.6726 17.168 95.6606 17.894 95.6606 19.478ZM91.8546 19.5C91.8546 16.046 94.4506 13.67 97.7066 13.67C100.963 13.67 103.559 16.046 103.559 19.5C103.559 22.954 100.963 25.33 97.7066 25.33C94.4506 25.33 91.8546 22.954 91.8546 19.5ZM108.697 25H104.825V14.022H108.455V15.408C108.961 14.396 110.237 13.692 111.491 13.692C112.965 13.692 114.087 14.286 114.681 15.364C115.429 14.242 116.507 13.692 117.981 13.692C120.049 13.692 121.941 14.924 121.941 17.916V25H118.157V18.73C118.157 17.894 117.695 17.212 116.771 17.212C115.847 17.212 115.341 17.938 115.341 18.686V25H111.513V18.73C111.513 17.894 111.051 17.212 110.105 17.212C109.203 17.212 108.697 17.938 108.697 18.752V25Z" fill="#161616"/>
<path d="M131.583 21.22C131.307 21.808 130.611 22.168 129.855 22.168C128.463 22.168 127.695 21.136 127.695 19.864V16.252H128.655V19.708C128.655 20.548 129.051 21.304 130.071 21.304C131.019 21.304 131.535 20.632 131.535 19.72V16.252H132.495V20.92C132.495 21.364 132.531 21.772 132.567 22H131.643C131.607 21.868 131.583 21.556 131.583 21.268V21.22ZM133.416 20.488L134.28 20.188C134.364 20.848 134.856 21.352 135.72 21.352C136.404 21.352 136.836 20.968 136.836 20.476C136.836 20.044 136.488 19.756 135.96 19.636L135.024 19.42C134.148 19.216 133.596 18.652 133.596 17.824C133.596 16.864 134.508 16.084 135.6 16.084C137.088 16.084 137.604 17.032 137.736 17.62L136.884 17.932C136.812 17.536 136.512 16.9 135.6 16.9C135 16.9 134.532 17.284 134.532 17.764C134.532 18.172 134.784 18.424 135.288 18.544L136.224 18.76C137.232 18.988 137.784 19.576 137.784 20.428C137.784 21.256 137.076 22.168 135.708 22.168C134.196 22.168 133.512 21.208 133.416 20.488ZM139.395 18.568H142.827C142.803 17.656 142.215 16.936 141.123 16.936C140.127 16.936 139.455 17.716 139.395 18.568ZM142.959 20.068L143.787 20.368C143.463 21.364 142.563 22.168 141.231 22.168C139.695 22.168 138.387 21.04 138.387 19.108C138.387 17.296 139.659 16.084 141.111 16.084C142.851 16.084 143.823 17.296 143.823 19.048C143.823 19.168 143.811 19.3 143.799 19.384H139.371V19.432C139.371 20.524 140.199 21.304 141.231 21.304C142.203 21.304 142.731 20.752 142.959 20.068ZM144.687 21.316C144.687 20.896 145.023 20.572 145.431 20.572C145.839 20.572 146.175 20.896 146.175 21.316C146.175 21.736 145.839 22.06 145.431 22.06C145.023 22.06 144.687 21.736 144.687 21.316ZM144.687 16.936C144.687 16.516 145.023 16.192 145.431 16.192C145.839 16.192 146.175 16.516 146.175 16.936C146.175 17.356 145.839 17.68 145.431 17.68C145.023 17.68 144.687 17.356 144.687 16.936Z" fill="#161616"/>
<path d="M32.0991 9.32672C32.0971 9.16333 32.1286 9.00121 32.1916 8.84989C32.2546 8.69856 32.3479 8.56109 32.466 8.44555C32.5841 8.33001 32.7247 8.23873 32.8793 8.17708C33.034 8.11543 33.1998 8.08466 33.3668 8.08656L35.9836 8.08656C36.1456 8.79059 36.5452 9.42072 37.1181 9.87535C37.6909 10.33 38.4036 10.5826 39.1412 10.5925C39.881 10.5857 40.5966 10.3344 41.172 9.87946C41.7473 9.42454 42.1485 8.7927 42.3105 8.08656L44.9273 8.08656C45.0943 8.08466 45.2601 8.11543 45.4147 8.17708C45.5694 8.23873 45.71 8.33001 45.8281 8.44555C45.9462 8.56109 46.0395 8.69856 46.1025 8.84989C46.1655 9.00121 46.197 9.16333 46.195 9.32672L46.195 27.3687C46.197 27.5321 46.1655 27.6942 46.1025 27.8456C46.0395 27.9969 45.9462 28.1344 45.8281 28.2499C45.71 28.3655 45.5694 28.4567 45.4147 28.5184C45.2601 28.58 45.0943 28.6108 44.9273 28.6089L42.3105 28.6089C42.1484 27.903 41.7471 27.2716 41.1717 26.8171C40.5963 26.3627 39.8807 26.112 39.1412 26.1058C38.4035 26.1135 37.69 26.365 37.1168 26.8194C36.5436 27.2738 36.1442 27.9044 35.9836 28.6089L33.3668 28.6089C33.1998 28.6108 33.034 28.58 32.8793 28.5184C32.7247 28.4567 32.5841 28.3655 32.466 28.2499C32.3479 28.1344 32.2546 27.9969 32.1916 27.8456C32.1286 27.6942 32.0971 27.5321 32.0991 27.3687L32.0991 9.32672ZM31 27.3687C31.0015 27.9823 31.2514 28.5704 31.6949 29.0043C32.1384 29.4382 32.7395 29.6826 33.3668 29.6841L36.4023 29.6841C36.5412 29.6845 36.6752 29.6333 36.7772 29.541C36.8791 29.4486 36.9415 29.3219 36.9518 29.1863C36.9871 28.639 37.2341 28.1255 37.6428 27.7501C38.0514 27.3748 38.5909 27.1658 39.1514 27.1658C39.7119 27.1658 40.2514 27.3748 40.66 27.7501C41.0687 28.1255 41.3157 28.639 41.351 29.1863C41.3619 29.3216 41.4246 29.448 41.5264 29.5402C41.6282 29.6324 41.7618 29.6838 41.9005 29.6841L44.9389 29.6841C45.5662 29.6826 46.1673 29.4382 46.6108 29.0043C47.0543 28.5704 47.3042 27.9823 47.3057 27.3687L47.3057 9.32672C47.3034 8.71335 47.0533 8.12574 46.61 7.69201C46.1666 7.25829 45.5659 7.01363 44.9389 7.01138L41.9005 7.01138C41.7639 7.01148 41.6322 7.06136 41.5312 7.15128C41.4301 7.24121 41.3669 7.36473 41.3539 7.49777C41.3169 8.04659 41.0675 8.56099 40.6564 8.93619C40.2453 9.3114 39.7035 9.51921 39.1412 9.5173C38.5832 9.51278 38.0476 9.30218 37.6416 8.92768C37.2356 8.55318 36.9892 8.04244 36.9518 7.49777C36.9422 7.36245 36.8804 7.23575 36.7789 7.14333C36.6775 7.05091 36.5439 6.99968 36.4052 7L33.3668 7C32.7378 7.00226 32.1353 7.24849 31.6917 7.68467C31.248 8.12085 30.9992 8.71137 31 9.32672L31 27.3687Z" fill="#161616"/>
<path d="M35.8615 15.6612C35.8623 15.731 35.8774 15.7999 35.9059 15.8639C35.9343 15.9279 35.9756 15.9856 36.0272 16.0338L41.5022 21.4211C41.6051 21.5222 41.7449 21.5791 41.8908 21.5794C42.0366 21.5797 42.1766 21.5232 42.28 21.4225C42.3833 21.3218 42.4415 21.1851 42.4418 21.0424C42.442 20.8997 42.3844 20.7627 42.2814 20.6616L36.8152 15.2772C36.7391 15.1962 36.6395 15.1401 36.5297 15.1162C36.42 15.0924 36.3054 15.1021 36.2015 15.1439C36.0975 15.1858 36.0092 15.2578 35.9484 15.3503C35.8876 15.4428 35.8573 15.5513 35.8615 15.6612Z" fill="#161616"/>
<path d="M37.6003 19.8766C37.6726 19.9462 37.7301 20.0292 37.7693 20.1208C37.8085 20.2123 37.8287 20.3106 37.8287 20.4099C37.8287 20.5092 37.8085 20.6075 37.7693 20.699C37.7301 20.7906 37.6726 20.8736 37.6003 20.9432C37.5303 21.0145 37.4463 21.0711 37.3534 21.1099C37.2604 21.1486 37.1605 21.1685 37.0595 21.1685C36.9585 21.1685 36.8585 21.1486 36.7656 21.1099C36.6726 21.0711 36.5886 21.0145 36.5187 20.9432C36.4463 20.8736 36.3888 20.7906 36.3496 20.699C36.3104 20.6075 36.2902 20.5092 36.2902 20.4099C36.2902 20.3106 36.3104 20.2123 36.3496 20.1208C36.3888 20.0292 36.4463 19.9462 36.5187 19.8766C36.5893 19.8064 36.6735 19.7507 36.7663 19.7126C36.8591 19.6746 36.9588 19.655 37.0595 19.655C37.1601 19.655 37.2598 19.6746 37.3526 19.7126C37.4455 19.7507 37.5297 19.8064 37.6003 19.8766ZM35.7365 21.7198C36.086 22.0612 36.5597 22.2531 37.0536 22.2531C37.5476 22.2531 38.0213 22.0612 38.3708 21.7198C38.7179 21.374 38.9125 20.9088 38.9125 20.4241C38.9125 19.9395 38.7179 19.4742 38.3708 19.1285C38.1977 18.959 37.9921 18.8245 37.7659 18.7328C37.5396 18.641 37.2971 18.5938 37.0522 18.5938C36.8073 18.5938 36.5648 18.641 36.3385 18.7328C36.1122 18.8245 35.9067 18.959 35.7336 19.1285C35.3868 19.4746 35.1928 19.9401 35.1934 20.4247C35.1939 20.9093 35.389 21.3744 35.7365 21.7198Z" fill="#161616"/>
<path d="M41.7929 15.7465C41.8657 15.8162 41.9236 15.8994 41.963 15.9912C42.0025 16.083 42.0229 16.1817 42.0229 16.2813C42.0229 16.3809 42.0025 16.4795 41.963 16.5713C41.9236 16.6632 41.8657 16.7464 41.7929 16.816C41.7225 16.887 41.6382 16.9434 41.545 16.9819C41.4519 17.0204 41.3518 17.0403 41.2507 17.0403C41.1495 17.0403 41.0494 17.0204 40.9563 16.9819C40.8632 16.9434 40.7789 16.887 40.7084 16.816C40.636 16.7464 40.5786 16.6634 40.5394 16.5718C40.5001 16.4803 40.4799 16.382 40.4799 16.2827C40.4799 16.1834 40.5001 16.0851 40.5394 15.9936C40.5786 15.902 40.636 15.819 40.7084 15.7494C40.7784 15.6779 40.8625 15.6209 40.9556 15.5819C41.0487 15.5429 41.1488 15.5227 41.25 15.5224C41.3513 15.5222 41.4515 15.5419 41.5448 15.5804C41.6381 15.6189 41.7225 15.6754 41.7929 15.7465ZM39.9321 17.5812C40.2819 17.922 40.7555 18.1133 41.2492 18.1133C41.7429 18.1133 42.2165 17.922 42.5663 17.5812C42.9144 17.2353 43.1094 16.7694 43.1094 16.2841C43.1094 15.7988 42.9144 15.3329 42.5663 14.9871C42.2169 14.6456 41.7431 14.4538 41.2492 14.4538C40.7553 14.4538 40.2815 14.6456 39.9321 14.9871C39.5825 15.3327 39.3864 15.7993 39.3864 16.2855C39.3864 16.7718 39.5825 17.2384 39.9321 17.584L39.9321 17.5812Z" fill="#161616"/>
</g>
</svg>
