<svg width="270" height="35" viewBox="0 0 270 35" fill="none" xmlns="http://www.w3.org/2000/svg">
<mask id="mask0_51_699" style="mask-type:alpha" maskUnits="userSpaceOnUse" x="0" y="0" width="270" height="35">
<rect width="270" height="35" fill="#D9D9D9"/>
</mask>
<g mask="url(#mask0_51_699)">
<g filter="url(#filter0_d_51_699)">
<path d="M81.6865 26H70.2865V8.275H74.9365V21.575H81.6865V26ZM87.9287 26H83.1537V8.275H87.9287V26ZM89.8945 17.15C89.8945 11.4 94.1195 7.9 98.9945 7.9C103.87 7.9 108.095 11.4 108.095 17.15C108.095 19.4 107.42 21.3 106.345 22.8L108.345 25.025L105.245 27.7L103.22 25.425C101.945 26.05 100.495 26.4 98.9945 26.4C94.1195 26.4 89.8945 22.9 89.8945 17.15ZM94.7195 17.125C94.7195 20.4 96.9195 21.875 98.9945 21.875C99.3195 21.875 99.6445 21.85 99.9695 21.775L97.9195 19.45L101.045 16.775L102.97 18.975C103.145 18.45 103.27 17.825 103.27 17.125C103.27 13.9 101.07 12.425 98.9945 12.425C96.9195 12.425 94.7195 13.9 94.7195 17.125ZM117.01 26.4C112.885 26.4 109.885 23.95 109.885 19.5V8.275H114.56V19.35C114.56 21.1 115.46 22.025 117.01 22.025C118.56 22.025 119.435 21.1 119.435 19.35V8.275H124.11V19.5C124.11 23.95 121.135 26.4 117.01 26.4ZM131.657 26H126.882V8.275H131.657V26ZM139.273 21.425H140.973C143.198 21.425 145.123 20.125 145.123 17.125C145.123 14.125 143.198 12.775 140.973 12.775H139.273V21.425ZM140.998 26H134.598V8.275H141.023C146.173 8.275 149.923 11.65 149.923 17.15C149.923 22.65 146.173 26 140.998 26ZM162.499 26L161.424 22.65H155.349L154.274 26H149.524L155.749 8.275H161.299L167.499 26H162.499ZM158.424 13.125L156.574 18.825H160.224L158.424 13.125ZM175.272 28.675L174.247 27.375L174.922 26.3C170.572 25.75 167.097 22.325 167.097 17.175C167.097 11.525 171.322 7.9 176.122 7.9C181.222 7.9 183.547 11 184.272 13.65L179.947 15.125C179.622 13.95 178.672 12.4 176.172 12.4C174.172 12.4 171.947 13.925 171.947 17.15C171.947 20.1 174.047 21.8 176.197 21.8C178.647 21.8 179.697 20.275 180.072 19.025L184.472 20.3C183.822 22.7 181.822 25.8 177.472 26.3L176.997 27.025C178.397 27.1 179.322 28 179.322 29.275C179.322 30.375 178.522 31.825 175.897 31.825C174.322 31.825 173.097 31 172.647 30.375L173.922 28.675C174.297 29.05 174.922 29.65 175.822 29.65C176.347 29.65 176.622 29.45 176.622 29.075C176.622 28.825 176.372 28.55 175.897 28.55C175.697 28.55 175.472 28.6 175.272 28.675ZM190.825 3.075C191.65 3.075 192.3 3.35 192.85 3.625C193.375 3.9 193.85 4.15 194.3 4.15C194.625 4.15 194.925 3.975 194.925 3.475V3.175H197.725V4.375C197.725 6.325 196.425 7.325 194.875 7.325C194.075 7.325 193.425 7.05 192.775 6.725C192.25 6.45 191.825 6.225 191.425 6.225C191.125 6.225 190.8 6.4 190.8 6.9V7.175H188V6.025C188 4.025 189.375 3.075 190.825 3.075ZM196.9 26L195.825 22.65H189.75L188.675 26H183.925L190.15 8.275H195.7L201.9 26H196.9ZM192.825 13.125L190.975 18.825H194.625L192.825 13.125ZM206.323 17.125C206.323 20.4 208.523 21.875 210.598 21.875C212.673 21.875 214.873 20.4 214.873 17.125C214.873 13.9 212.673 12.425 210.598 12.425C208.523 12.425 206.323 13.9 206.323 17.125ZM201.498 17.15C201.498 11.4 205.723 7.9 210.598 7.9C215.473 7.9 219.698 11.4 219.698 17.15C219.698 22.9 215.473 26.4 210.598 26.4C205.723 26.4 201.498 22.9 201.498 17.15Z" fill="#FF7800"/>
</g>
</g>
<defs>
<filter id="filter0_d_51_699" x="70.2865" y="3.0752" width="150.412" height="29.75" filterUnits="userSpaceOnUse" color-interpolation-filters="sRGB">
<feFlood flood-opacity="0" result="BackgroundImageFix"/>
<feColorMatrix in="SourceAlpha" type="matrix" values="0 0 0 0 0 0 0 0 0 0 0 0 0 0 0 0 0 0 127 0" result="hardAlpha"/>
<feOffset dx="1" dy="1"/>
<feComposite in2="hardAlpha" operator="out"/>
<feColorMatrix type="matrix" values="0 0 0 0 0.0862745 0 0 0 0 0.0862745 0 0 0 0 0.0862745 0 0 0 1 0"/>
<feBlend mode="normal" in2="BackgroundImageFix" result="effect1_dropShadow_51_699"/>
<feBlend mode="normal" in="SourceGraphic" in2="effect1_dropShadow_51_699" result="shape"/>
</filter>
</defs>
</svg>
