<svg width="270" height="35" viewBox="0 0 270 35" fill="none" xmlns="http://www.w3.org/2000/svg">
<mask id="mask0_51_719" style="mask-type:alpha" maskUnits="userSpaceOnUse" x="0" y="0" width="270" height="35">
<rect width="270" height="35" fill="#D9D9D9"/>
</mask>
<g mask="url(#mask0_51_719)">
<path d="M269 5L269 30" stroke="#161616" stroke-linecap="round"/>
<path d="M69.506 23.384C68.34 23.868 66.492 24.264 64.864 24.264C60.926 24.264 58.66 21.998 58.66 18.544C58.66 14.848 61.168 12.406 64.754 12.406C65.084 12.406 65.436 12.428 65.766 12.472V8.248L69.506 8.072V23.384ZM62.466 18.346C62.466 20.282 63.368 21.184 64.842 21.184C65.238 21.184 65.502 21.14 65.766 21.03V15.596C65.48 15.53 65.216 15.486 64.974 15.486C63.368 15.486 62.466 16.388 62.466 18.346ZM79.9148 20.546L80.4868 23.516C79.5628 23.934 78.0668 24.264 76.5708 24.264C72.9848 24.264 70.4987 21.91 70.4987 18.324C70.4987 14.76 72.8528 12.406 76.1308 12.406C78.9688 12.406 81.0367 14.43 81.0367 17.51C81.0367 18.236 80.9928 18.896 80.9487 19.336H74.4588C74.7668 20.59 75.5808 21.14 76.9888 21.14C78.0228 21.14 79.0128 20.898 79.9148 20.546ZM76.1308 15.376C75.2068 15.376 74.5687 15.992 74.3708 17.136H77.4727V16.96C77.4727 15.926 76.9008 15.376 76.1308 15.376ZM89.7721 13.088L89.3981 16.124C88.3201 15.794 87.2421 15.486 86.2081 15.486C85.5261 15.486 85.0641 15.64 85.0641 15.97C85.0641 16.344 85.3061 16.476 86.6041 16.828C89.2661 17.51 90.3661 18.434 90.3661 20.524C90.3661 23.01 88.3641 24.264 85.4821 24.264C84.0741 24.264 82.5341 24 81.3681 23.494L81.8521 20.458C82.8201 20.854 84.1181 21.184 85.4161 21.184C86.1641 21.184 86.7141 20.986 86.7141 20.612C86.7141 20.084 86.3841 19.996 84.6461 19.534C82.4901 18.984 81.4121 17.972 81.4121 16.058C81.4121 13.726 83.0841 12.406 85.9001 12.406C87.1981 12.406 88.7381 12.692 89.7721 13.088ZM96.0935 12.406C97.3475 12.406 98.6675 12.714 99.4815 13.088L98.7995 16.014C97.9635 15.662 97.1055 15.486 96.4235 15.486C95.0155 15.486 94.1795 16.498 94.1795 18.236C94.1795 20.216 95.0375 21.184 96.5555 21.184C97.1935 21.184 98.0515 21.03 98.8875 20.656L99.4595 23.648C98.7335 24 97.5895 24.264 96.2255 24.264C92.5295 24.264 90.3735 21.91 90.3735 18.346C90.3735 14.76 92.5295 12.406 96.0935 12.406ZM110.902 18.324C110.902 21.91 108.702 24.264 105.204 24.264C101.706 24.264 99.4837 21.91 99.4837 18.324C99.4837 14.76 101.706 12.406 105.204 12.406C108.702 12.406 110.902 14.76 110.902 18.324ZM103.29 18.324C103.29 20.128 104.016 21.184 105.204 21.184C106.392 21.184 107.096 20.128 107.096 18.324C107.096 16.542 106.392 15.486 105.204 15.486C104.016 15.486 103.29 16.542 103.29 18.324ZM115.634 24H111.894V13.308C113.302 12.758 115.348 12.406 117.02 12.406C120.364 12.406 122.388 14.034 122.388 17.158V24H118.648V17.422C118.648 16.014 118.032 15.486 116.976 15.486C116.47 15.486 116.008 15.574 115.634 15.706V24ZM130.617 24.088C130.067 24.198 129.275 24.264 128.549 24.264C125.623 24.264 124.259 22.614 124.259 19.534V15.64H122.829V12.67H124.259V10.316L127.999 10.14V12.67H130.177V15.64H127.999V19.49C127.999 20.59 128.461 21.184 129.341 21.184C129.825 21.184 130.199 21.14 130.419 21.096L130.617 24.088ZM142.035 18.324C142.035 21.91 139.835 24.264 136.337 24.264C132.839 24.264 130.617 21.91 130.617 18.324C130.617 14.76 132.839 12.406 136.337 12.406C139.835 12.406 142.035 14.76 142.035 18.324ZM134.423 18.324C134.423 20.128 135.149 21.184 136.337 21.184C137.525 21.184 138.229 20.128 138.229 18.324C138.229 16.542 137.525 15.486 136.337 15.486C135.149 15.486 134.423 16.542 134.423 18.324Z" fill="#FF7800"/>
<path d="M151.28 24H147.54V13.308C148.948 12.758 150.994 12.406 152.666 12.406C156.01 12.406 158.034 14.034 158.034 17.158V24H154.294V17.422C154.294 16.014 153.678 15.486 152.622 15.486C152.116 15.486 151.654 15.574 151.28 15.706V24ZM170.333 18.324C170.333 21.91 168.133 24.264 164.635 24.264C161.137 24.264 158.915 21.91 158.915 18.324C158.915 14.76 161.137 12.406 164.635 12.406C168.133 12.406 170.333 14.76 170.333 18.324ZM162.721 18.324C162.721 20.128 163.447 21.184 164.635 21.184C165.823 21.184 166.527 20.128 166.527 18.324C166.527 16.542 165.823 15.486 164.635 15.486C163.447 15.486 162.721 16.542 162.721 18.324ZM186.361 18.236C186.361 21.866 184.117 24.22 180.773 24.22C180.157 24.22 179.761 24.198 179.255 24.044V28.136H175.515V13.308C176.725 12.824 178.595 12.406 180.311 12.406C183.985 12.406 186.361 14.562 186.361 18.236ZM179.255 21.03C179.585 21.14 179.761 21.184 180.201 21.184C181.851 21.184 182.555 20.26 182.555 18.346C182.555 16.542 181.851 15.486 180.091 15.486C179.783 15.486 179.607 15.53 179.255 15.596V21.03ZM191.094 12.67V24H187.354V12.67H191.094ZM189.224 11.592C187.882 11.592 187.112 10.8 187.112 9.568C187.112 8.358 187.882 7.566 189.224 7.566C190.544 7.566 191.314 8.358 191.314 9.568C191.314 10.8 190.544 11.592 189.224 11.592ZM191.738 24C192.222 21.734 193.278 19.864 194.928 18.06C193.454 16.432 192.31 14.958 191.716 12.67H195.764C195.918 13.506 196.754 14.892 197.612 16.08C198.206 14.98 198.734 13.726 198.8 12.67H202.606C201.99 15.09 201.11 16.74 199.548 18.39C201.22 20.26 202.254 21.8 202.98 24H198.932C198.646 23.054 197.678 21.536 196.798 20.348C196.204 21.404 195.566 22.614 195.346 24H191.738Z" fill="#161616"/>
<path d="M214.699 22.4755C214.699 22.4753 214.699 22.4751 214.699 22.4751C214.11 22.475 213.558 22.2484 213.141 21.8316L210.895 19.5855C210.74 19.4311 210.46 19.4311 210.306 19.5855L208.05 21.8408C207.633 22.2578 207.081 22.4843 206.492 22.4843C206.328 22.4843 206.246 22.6824 206.362 22.7982L208.902 25.3378C209.79 26.2255 211.239 26.2255 212.126 25.3378L214.844 22.6207C214.897 22.5673 214.859 22.4759 214.784 22.4759H214.699C214.699 22.4759 214.699 22.4757 214.699 22.4755Z" fill="#161616"/>
<path d="M206.483 14.5188C206.483 14.519 206.483 14.5193 206.483 14.5193C207.072 14.5194 207.624 14.7459 208.041 15.1628L210.296 17.4181C210.459 17.5808 210.722 17.5808 210.885 17.4181L213.141 15.172C213.558 14.755 214.11 14.5285 214.699 14.5285C214.799 14.5285 214.85 14.4072 214.779 14.3362L212.109 11.6658C211.222 10.7781 209.773 10.7781 208.885 11.6658L206.191 14.3582C206.132 14.4173 206.173 14.5184 206.257 14.5184H206.483C206.483 14.5184 206.483 14.5187 206.483 14.5188Z" fill="#161616"/>
<path d="M217.334 16.8916L215.697 15.254C215.642 15.1989 215.555 15.1884 215.478 15.1884H214.69C214.282 15.1884 213.883 15.3512 213.603 15.6415L211.356 17.8875C211.148 18.0956 210.867 18.2047 210.595 18.2047C210.323 18.2047 210.042 18.0956 209.834 17.8875L207.578 15.6323C207.289 15.3428 206.89 15.1792 206.492 15.1792H205.523C205.45 15.1792 205.371 15.1869 205.319 15.2383L203.666 16.8916C202.778 17.7793 202.778 19.2283 203.666 20.116L205.31 21.7599C205.361 21.8113 205.441 21.8192 205.513 21.8192H206.483C206.89 21.8192 207.289 21.6564 207.569 21.3661L209.825 19.1108C210.232 18.7031 210.948 18.7031 211.355 19.1108L213.601 21.3569C213.891 21.6463 214.289 21.8099 214.688 21.8099H215.476C215.555 21.8099 215.639 21.8006 215.695 21.7446L217.333 20.1067C218.222 19.2191 218.222 17.7793 217.334 16.8916Z" fill="#161616"/>
</g>
</svg>
